<svg id="Layer_1" data-name="Layer 1" xmlns="http://www.w3.org/2000/svg" viewBox="0 0 496.38 80.77"><defs><style>.cls-1{font-size:60.27px;font-family:Lora-Bold, Lora;font-weight:700;}</style></defs><title>Untitled-1</title><path d="M9.24,67.93a6,6,0,0,0,4-1.38,9.85,9.85,0,0,0,2.53-3.37c.61-1.32,1.38-3.23,2.3-5.75l18-49.29H42.5L62.12,58.35q.74,1.84,1.57,4.56a24.48,24.48,0,0,1,1,4.56c2-.19,3.81-.28,5.34-.28v7.1H45.26V68.21q4.43,0,4.42-3.69a12.35,12.35,0,0,0-1-4.42L46.83,55l-20,.37-1.48,4.33-1.24,3.32q-1,2.58-1.71,4.14,3-.27,6.55-.27v7.37H9.24ZM44.52,48.49,40.29,37a75.06,75.06,0,0,1-3.5-12.62h-.1a108.79,108.79,0,0,1-3.4,12.16l-4.15,12Z" transform="translate(-9.24 5.02)"/><path d="M73.73,68.3q3.49,0,4.47-1.94a15,15,0,0,0,1-6.26V44.62q0-4.14.36-7.83l-6.44.28v-7a42.62,42.62,0,0,0,9.39-.83c2.4-.55,4-1.19,4.79-1.93h4.52c.12.92.21,2.12.27,3.59s.1,2.92.1,4.33h.18q6.27-8.47,13.27-8.47a8.51,8.51,0,0,1,5.75,1.93,7.1,7.1,0,0,1,2.26,5.71,7.11,7.11,0,0,1-1.56,4.43,5.59,5.59,0,0,1-4.7,2,7.21,7.21,0,0,1-4.1-1.2,5.22,5.22,0,0,1-2.08-4.14q-2.58,0-5.29,3a16.07,16.07,0,0,0-3.64,5.95v15c0,2.95-.13,5.65-.37,8.11,2-.18,4-.28,6-.28v7H73.73Z" transform="translate(-9.24 5.02)"/><path d="M119.84,72.3a12.08,12.08,0,0,1-3.36-8.79q0-8.11,7.55-12.3a40.6,40.6,0,0,1,18.15-4.66V41.76q0-8.37-6.26-8.38A9,9,0,0,0,129.28,36a5.19,5.19,0,0,1,1.11,3.5,5.89,5.89,0,0,1-1.52,4,5.58,5.58,0,0,1-4.47,1.75,5.46,5.46,0,0,1-4.33-1.79,6.59,6.59,0,0,1-1.57-4.47,9,9,0,0,1,2.58-6.36,16.83,16.83,0,0,1,7-4.28,30.13,30.13,0,0,1,9.81-1.52Q155,26.75,155,44.34l-.09,15.11c0,2.95-.13,5.65-.37,8.11,2-.18,4-.28,6-.28v7H143.1c-.12-.8-.24-2.22-.37-4.24h-.09A18.39,18.39,0,0,1,129,75.76Q123.21,75.76,119.84,72.3Zm22.25-8.89V53.1a20.73,20.73,0,0,0-9,2.76,6.75,6.75,0,0,0-3.55,6,4.39,4.39,0,0,0,1.52,3.68,5.83,5.83,0,0,0,3.73,1.2A9.7,9.7,0,0,0,142.09,63.41Z" transform="translate(-9.24 5.02)"/><path d="M166,68.3c2.33,0,3.84-.65,4.51-1.94s1-3.37,1-6.26V35.78l-6.73.09V28.22h6.73V25.55q0-10.79,4.7-15.8t13.35-5c4,0,6.94.8,8.85,2.39a7.26,7.26,0,0,1,2.85,5.72,6.43,6.43,0,0,1-1.56,4.37,5.45,5.45,0,0,1-4.33,1.8,5.3,5.3,0,0,1-4-1.48,5.2,5.2,0,0,1-1.43-3.77,6.79,6.79,0,0,1,.19-1.85,2.87,2.87,0,0,0-2.12-.73q-3.69.09-3.69,5.71V28.22H194.6v7.1l-10.22.27.09,23.68c0,3.07-.13,5.83-.37,8.29,2-.18,4.17-.28,6.45-.28v7H166Z" transform="translate(-9.24 5.02)"/><path d="M222.51,68.3c2.34,0,3.84-.65,4.52-1.94a14.37,14.37,0,0,0,1-6.26V22.23a77.76,77.76,0,0,1,.37-8l-6.45.27v-7a42.78,42.78,0,0,0,9.4-.83c2.39-.55,4-1.2,4.7-1.93h5.06v42h4.43l6.63-7.65q2.85-3.23,3.59-3.87v-.09l-4.88.09v-7h20.73v5.9a17,17,0,0,0-7.51,2.44,25.54,25.54,0,0,0-5.57,4.84l-5.9,6.54V48a12,12,0,0,1,2.81,2,28.19,28.19,0,0,1,3.18,3.73l6.17,8.11a52,52,0,0,0,4.24,4.7,6,6,0,0,0,4.24,1.75v6h-10.6a7.21,7.21,0,0,1-4.88-1.85,40.59,40.59,0,0,1-5.34-6.17q-3.51-4.69-6.73-9.58l-2.49-3.5-2.12.09v6.17q0,4.42-.36,8.11c2-.18,4-.28,6-.28v7H222.51Z" transform="translate(-9.24 5.02)"/><path d="M280.69,72.3a12.08,12.08,0,0,1-3.36-8.79q0-8.11,7.55-12.3A40.6,40.6,0,0,1,303,46.55V41.76q0-8.37-6.26-8.38A9,9,0,0,0,290.14,36a5.24,5.24,0,0,1,1.1,3.5,5.89,5.89,0,0,1-1.52,4,5.58,5.58,0,0,1-4.47,1.75,5.47,5.47,0,0,1-4.33-1.79,6.58,6.58,0,0,1-1.56-4.47,9,9,0,0,1,2.58-6.36,16.73,16.73,0,0,1,7-4.28,30.15,30.15,0,0,1,9.82-1.52q17,0,17,17.59l-.09,15.11c0,2.95-.13,5.65-.37,8.11,2-.18,4-.28,6-.28v7H304c-.12-.8-.24-2.22-.36-4.24h-.1a18.39,18.39,0,0,1-13.63,5.71Q284.06,75.76,280.69,72.3Zm22.25-8.89V53.1a20.73,20.73,0,0,0-9,2.76,6.75,6.75,0,0,0-3.55,6,4.39,4.39,0,0,0,1.52,3.68,5.85,5.85,0,0,0,3.73,1.2A9.7,9.7,0,0,0,302.94,63.41Z" transform="translate(-9.24 5.02)"/><path d="M326.62,68.3q3.5,0,4.47-1.94a15,15,0,0,0,1-6.26V44.62a77.61,77.61,0,0,1,.37-7.83l-6.45.28v-7a42.78,42.78,0,0,0,9.4-.83q3.58-.82,4.79-1.93h4.51c.13.92.22,2.12.28,3.59s.09,2.92.09,4.33h.19q6.25-8.47,13.26-8.47a8.52,8.52,0,0,1,5.76,1.93,7.1,7.1,0,0,1,2.26,5.71,7.06,7.06,0,0,1-1.57,4.43,5.56,5.56,0,0,1-4.7,2,7.23,7.23,0,0,1-4.1-1.2,5.24,5.24,0,0,1-2.07-4.14q-2.58,0-5.3,3a16.34,16.34,0,0,0-3.64,5.95v15q0,4.42-.36,8.11c2-.18,4-.28,6-.28v7H326.62Z" transform="translate(-9.24 5.02)"/><path d="M370.84,68.3q3.5,0,4.47-1.94a15,15,0,0,0,1-6.26V44.8c0-2.88.13-5.55.37-8l-6.45.28v-7a42.72,42.72,0,0,0,9.4-.83c2.4-.55,4-1.19,4.79-1.93h5V59.45c0,2.95-.13,5.65-.37,8.11,2-.18,4-.28,6-.28v7H370.84Z" transform="translate(-9.24 5.02)"/><path d="M401,68.3q3.51,0,4.47-1.94a14.79,14.79,0,0,0,1-6.26V44.62a77.61,77.61,0,0,1,.37-7.83l-6.45.28v-7a42.78,42.78,0,0,0,9.4-.83q3.58-.82,4.79-1.93H419c0,.12.12,1.66.37,4.61h.18A25.09,25.09,0,0,1,426,28.17a18.94,18.94,0,0,1,7-1.42,14.39,14.39,0,0,1,7,1.52,11,11,0,0,1,4.47,4.56,27.93,27.93,0,0,1,7.37-4.42,20.14,20.14,0,0,1,7.64-1.66q7.65,0,11.38,4.42t3.73,14.74V59.45q0,4.42-.36,8.11c2-.18,4-.28,6-.28v7h-23.3v-6c2,0,3.22-.66,3.77-2a17.3,17.3,0,0,0,.83-6.22V46q-.09-5.8-1.93-8.24a6.28,6.28,0,0,0-5.35-2.44,12.71,12.71,0,0,0-7.92,3,40.42,40.42,0,0,1,.83,8.75V59.45a80.64,80.64,0,0,1-.37,8.11c2-.18,4-.28,6-.28v7H429v-6q3.22,0,4.15-1.94A15.63,15.63,0,0,0,434,60.1L434,45.73c0-3.81-.56-6.5-1.66-8.07a6,6,0,0,0-5-2.44,11.65,11.65,0,0,0-7.83,3.41V59.45a80.64,80.64,0,0,1-.37,8.11c2-.18,3.81-.28,5.53-.28v7H401Z" transform="translate(-9.24 5.02)"/><text class="cls-1" transform="matrix(1, 0, 0, 1, 464.22, 51.29)" fill="#2962ff">*</text><ellipse cx="373.76" cy="18.52" rx="7" ry="7.5" fill="#2962ff"/></svg>