<?xml version="1.0" encoding="utf-8"?>
<!-- Generator: Adobe Illustrator 23.0.3, SVG Export Plug-In . SVG Version: 6.00 Build 0)  -->
<svg version="1.1" id="f0862836-4e64-470e-8684-783773d4b1d8"
	 xmlns="http://www.w3.org/2000/svg" xmlns:xlink="http://www.w3.org/1999/xlink" x="0px" y="0px" viewBox="0 0 733.4 558"
	 style="enable-background:new 0 0 733.4 558;" xml:space="preserve">
<style type="text/css">
	.st0{fill:#3F3D56;}
	.st1{fill:#FF6584;}
	.st2{opacity:0.1;enable-background:new    ;}
	.st3{fill:#6C63FF;}
	.st4{fill:#FFB9B9;}
	.st5{opacity:0.2;enable-background:new    ;}
	.st6{fill:#2F2E41;}
	.st7{fill:#575A89;}
	.st8{fill:#A0616A;}
</style>
<title>Waiting _for_you</title>
<ellipse class="st0" cx="344.2" cy="506.7" rx="149.3" ry="5.3"/>
<circle class="st1" cx="274.6" cy="215.1" r="53.4"/>
<ellipse class="st0" cx="211.7" cy="488.5" rx="45" ry="4.1"/>
<path class="st0" d="M293.7,507c0,0,37.4-99.6,16.8-160.9c-20.6-61.3-36.9-58.9-36.9-58.9s-27.8-7.2-62.3,13.9
	c-34.5,21.1-43.6,27.3-63.2,18.7c-19.6-8.6-23.5-22-71.4-20.6c0,0,25.4-13.9,50.3-1.4s41.7,19.2,67.1,0
	c25.4-19.2,60.4-44.1,94.4-29.2c0,0-24.9-24.4-33.1-24.4s-46.5-3.8-58.9-16.8c0,0-17.7-12.5-49.3,18.2s-24,30.7-52.2,28.3
	s-50.3-16.3-50.3-16.3s33.1,13.4,53.2,6.7s37.4-32.1,55.1-40.7s28.3-20.1,52.2-7.7c0,0-10.1-41.2-29.2-37.8s9.1-9.6,9.1-9.6
	s-5.3-69.9-15.3-74.7c-10.1-4.8-3.8-17.2-22.5-19.6c0,0,23-2.9,27.3,12.9s34,101.1,34,101.1s18.2,36.4,38.3,27.8s-7.7-57-7.7-57
	L204.6,143c0,0,25.9-1,41.7,13.9s16.8,62.7,16.8,62.7s39.8,5.7,49.3,27.3c0,0,6.2-19.2-5.7-30.7c-3-2.9-6.1-7.9-9.2-13.8
	c-11.6-22.5-15.5-48.1-11.9-73.2c1.8-12.3,2.9-24.2,0.9-27.1c-4.3-6.2-22.5-44.5-24-54.6s1.4-31.1,1.4-31.1s0.5,25.9,6.2,34
	c5.7,8.1,22,48.4,22,48.4s0,50.8,13.4,75.7s39.3,52.7,37.8,70.9V256c0,0,28.7-27.3,26.8-36.4c-1.9-9.1-4.3-30.7-22.5-43.6
	c-18.2-12.9-30.2-33.5-17.2-63.2c12.9-29.7,12.9-35,12.9-35l-8.6,36.9c0,0-4.8,33.1,8.6,44.5c13.4,11.5,31.1,32.6,31.1,32.6l-3.8-69
	l12.5,27.3c0,0,26.8-34.5,58.4-46S493,52.5,493,52.5l26.8-21.1l-22,26.3c0,0-6.7,31.1-44.5,53.2s-62.3,54.6-63.7,74.7
	c-1.4,20.1-2.9,37.8-2.9,37.8s70.9-2.4,86.7-33.5c15.8-31.1,17.2-92.9,32.6-103S550,64.4,550,64.4l-32.1,26.3c0,0-6.7,21.6-5.3,36.9
	s-10.5,29.7-10.5,29.7l-9.1,26.8l-10.1,23c0,0,41.2,1,62.7,25.4c21.6,24.4,75.2,31.6,75.2,31.6l-30.2,8.1c0,0-28.7-9.6-56-27.3
	s-24.4-33.5-58.4-15.8s-80.5,32.6-80.5,32.6s26.8-12.5,75.2,17.7s-24-5.3-45.5,6.2c-21.6,11.5-31.6-2.9-40.2,25.9
	c-8.6,28.7-24.4,107.3-6.2,151.4l18.2,44.1H293.7z"/>
<path class="st2" d="M474.1,189.9c-12.8,25.3-62,31.6-80,33.1c-0.5,6.5-0.8,10.6-0.8,10.6s70.9-2.4,86.7-33.5
	c15.8-31.1,17.2-92.9,32.6-103c1.6-1.1,3.4-2.2,5.3-3.3c0.5-1.9,0.9-3.1,0.9-3.1l32.1-26.3c0,0-28.7,12.5-44.1,22.5
	C491.3,97,489.9,158.8,474.1,189.9z"/>
<path class="st2" d="M391.5,141.5c-0.1,11.8-1.6,18.8-1.6,18.8s26.8-34.5,58.4-46c1.9-1.2,3.8-2.3,5.7-3.5
	c37.8-22,44.5-53.2,44.5-53.2l22-26.3l-26.8,21.1c0,0-19.6,40.2-51.3,51.7C420.9,112,401.6,130.5,391.5,141.5z"/>
<path class="st2" d="M350.1,255.7v10.5c0,0,28.7-27.3,26.8-36.4c-1.5-7-3.2-21.2-12.1-33.3c4,9.1,5.2,18.1,6.3,23.1
	c1.4,6.5-13,22.4-21.3,30.9C350.1,252.2,350.2,253.9,350.1,255.7z"/>
<path class="st2" d="M311.5,183.4c0.2,0.5,0.5,1,0.7,1.4c7.3,13.6,18.4,28.1,26.7,41.5C332.2,213,320.6,198,311.5,183.4z"/>
<path class="st2" d="M334.9,163c-3.9-9.5-4.5-20.7-0.1-33.9c-0.1-4.8,0.2-9.6,0.8-14.3l7.5-32.3c-1.4,4.7-4.6,13.6-11.9,30.3
	C322.1,134,325.5,150.5,334.9,163z"/>
<path class="st2" d="M546.4,232.6c-14.9-16.9-39.3-22.6-52.9-24.5l-4,9.3c0,0,41.2,1,62.7,25.4c12,13.5,33.8,21.8,50.8,26.4l18.5-5
	C621.6,264.2,567.9,257,546.4,232.6z"/>
<path class="st2" d="M253.3,226c20.1-8.6-7.7-57-7.7-57l-0.8-0.3c6.9,14.6,17,41,2.6,47.2c-13.4,5.8-26-8.6-32.9-18.7
	c0.2,0.7,0.4,1.1,0.4,1.1S233.2,234.6,253.3,226z"/>
<path class="st2" d="M318.9,257.1c0,0,6.1-18.7-5.3-30.2c2.8,9.9-0.5,20-0.5,20c-7.4-16.7-32.9-23.9-44-26.3
	c0.4,5.6,0.5,9.2,0.5,9.2S309.3,235.6,318.9,257.1z"/>
<path class="st2" d="M343.2,82.5c1.1-3.6,1.1-4.6,1.1-4.6L343.2,82.5z"/>
<path class="st2" d="M104,274.4c0.1,0,0.2-0.1,0.3-0.1c20.1-6.7,37.4-32.1,55.1-40.7c17.7-8.6,28.3-20.1,52.2-7.7
	c0,0-4.2-17.2-12.3-28.4c2.7,5.9,4.9,12,6.5,18.2c-24-12.5-34.5-1-52.2,7.7c-17.7,8.6-35,34-55.1,40.7c-20.1,6.7-53.2-6.7-53.2-6.7
	s22,13.9,50.3,16.3C98.9,274,101.6,274.3,104,274.4z"/>
<path class="st2" d="M303.7,507c8.8-26.9,29.9-101.3,13.3-150.8c-7.2-21.4-13.8-35-19.5-43.7c4.2,8.2,8.8,19.1,13.6,33.5
	c20.6,61.3-16.8,160.9-16.8,160.9H303.7z"/>
<path class="st2" d="M116.7,303c5.9,0.6,11.6,2.3,16.9,4.9c19.7,9.8,34.3,16.1,52,8.8c4-2.1,8.6-4.8,13.8-7.9
	c0.4-0.3,0.8-0.6,1.2-0.9c25.4-19.2,60.4-44.1,94.4-29.2c0,0-6.9-6.7-14.6-13.1c-31.2-7.6-62.4,14.7-85.6,32.2
	c-25.4,19.2-42.2,12.5-67.1,0c-24.9-12.5-50.3,1.4-50.3,1.4C95.9,298.6,107.9,300.3,116.7,303z"/>
<path class="st2" d="M165.3,89c0.5,0.9,1.2,1.8,2,2.5C166.7,90.6,166,89.8,165.3,89z"/>
<path class="st2" d="M252.8,167.1c0.7,0.7,1.4,1.4,2.1,2.2c-2.1-5-4.7-9.4-7.9-12.4C231.2,142,205.3,143,205.3,143l32.4,14.9
	C243.3,159.9,248.4,163.1,252.8,167.1z"/>
<path class="st2" d="M287.2,102.3c2,2.8,0.9,14.8-0.9,27.1c-3.6,25,0.3,50.7,11.9,73.2c1.5,3,3.2,5.9,5.1,8.8
	c-11-22.2-14.7-47.3-11.2-71.8c1.8-12.3,2.9-24.2,0.9-27.1c-4.3-6.2-22.5-44.5-24-54.6c-0.4-3.9-0.5-7.8-0.3-11.8
	c-3.7-10.6-4.1-29.6-4.1-29.6s-2.9,21.1-1.4,31.1S282.9,96,287.2,102.3z"/>
<path class="st2" d="M332.2,36.1c-0.2-0.9-0.5-1.9-0.9-2.8C331.3,33.3,331.7,34.3,332.2,36.1z"/>
<path class="st2" d="M163,84.3c4.2,0.5,9.1,1.8,12.8,4.8c-0.2-0.8-0.5-1.5-0.6-2.2C170.8,71.1,147.9,74,147.9,74
	C158.2,75.3,160.9,79.8,163,84.3z"/>
<path class="st0" d="M282.1,486.6c3.4,12.6,15.1,20.4,15.1,20.4s6.2-12.7,2.7-25.3s-15.1-20.4-15.1-20.4S278.6,473.9,282.1,486.6z"
	/>
<path class="st3" d="M287.1,483.9c9.4,9.1,10.5,23.1,10.5,23.1s-14-0.8-23.4-9.9c-9.4-9.1-10.5-23.1-10.5-23.1
	S277.7,474.7,287.1,483.9z"/>
<path class="st3" d="M256,141.6c-0.8,13.1-10.7,23.1-10.7,23.1s-8.6-11.2-7.8-24.2c0.8-13.1,10.7-23.1,10.7-23.1
	S256.8,128.5,256,141.6z"/>
<path class="st3" d="M152.9,59c11.1,7,15.1,20.5,15.1,20.5s-13.9,2.2-25-4.8c-11.1-7-15.1-20.5-15.1-20.5S141.8,52.1,152.9,59z"/>
<path class="st3" d="M128.2,218.2c11.1,7,15.1,20.5,15.1,20.5s-13.9,2.2-25-4.8s-15.1-20.5-15.1-20.5S117.1,211.2,128.2,218.2z"/>
<path class="st3" d="M187,279.2c11.1,7,15.1,20.5,15.1,20.5s-13.9,2.2-25-4.8c-11.1-7-15.1-20.5-15.1-20.5S176,272.2,187,279.2z"/>
<path class="st3" d="M353.1,82.3c-3.3,12.6-15,20.5-15,20.5s-6.2-12.6-2.9-25.3s15-20.5,15-20.5S356.4,69.7,353.1,82.3z"/>
<path class="st3" d="M458.3,92.2c-3.9,12.5-15.9,19.8-15.9,19.8s-5.6-12.9-1.7-25.4c3.9-12.5,15.9-19.8,15.9-19.8
	S462.3,79.7,458.3,92.2z"/>
<path class="st3" d="M572.1,231c-7.1,11-20.6,14.9-20.6,14.9s-2-13.9,5.1-24.9c7.1-11,20.6-14.9,20.6-14.9S579.2,220,572.1,231z"/>
<path class="st4" d="M393.5,320.8c0,0-1.1,4.2,1.1,5.7c2.3,1.5,3,8.7,3,8.7l-4.6,12.6l-12.2,2.3l-4.6-8.7v-12.9c0,0,1.5-6.5,1.1-8.4
	C377.2,318.2,393.5,320.8,393.5,320.8z"/>
<path class="st5" d="M393.5,320.8c0,0-1.1,4.2,1.1,5.7c2.3,1.5,3,8.7,3,8.7l-4.6,12.6l-12.2,2.3l-4.6-8.7v-12.9c0,0,1.5-6.5,1.1-8.4
	C377.2,318.2,393.5,320.8,393.5,320.8z"/>
<path class="st6" d="M405.7,392.7l9.9,1.9c0,0,0.8,11,0,13.7s-1.5,5.7-0.8,6.5c0.8,0.8-3.4,20.2-3,21.3s1.1,4.6,0.8,6.8
	c-0.4,2.3-1.5,1.5-0.8,3.8c0.8,2.3,1.5,2.7,0.8,4.2c-0.8,1.5-4.6,38.4-5.7,38.8c-1.1,0.4-11.4,0.8-11.4,0c0-0.8,3.4-6.5,2.3-8
	c-1.1-1.5,0.4-27.4,0.4-28.5s2.3-3,1.1-3.8c-1.1-0.8-1.9-1.5-1.5-2.7c0.4-1.1,1.1-1.5,0.4-2.7s-0.8-24-3.4-24.7
	c0,0-3.4,16.7-2.3,20.9c1.1,4.2-0.4,5.7-0.4,5.7l5.3,4.6l-7.2,13.7l-7.6-8.7c0,0,0-2.3-1.5-2.7c-1.5-0.4-2.3-0.8-2.3-1.9
	s-2.7-8.4-2.7-8.4s-7.6-24-3.8-36.1c3.8-12.2,5.3-11.8,5.3-11.8L405.7,392.7z"/>
<polygon class="st4" points="411.8,471.4 415.9,476 414.4,488.5 411,488.5 405.7,476.8 "/>
<path class="st6" d="M414.4,479.8c0,0-1.5,3.4-2.7,2.7c-1.1-0.8-1.5-1.9-3.2-1.9c-1.7,0-3.2,0.4-2.9,1.1c0.4,0.8,4.9,9.1,4.9,9.1
	c1.4,2.9,1.4,6.2,0,9.1c-2.3,4.9,6.1,7.6,7.6,2.3c1.5-5.3,1.9-11.4,1.5-13.7c-0.4-2.3,1.9-14.1,1.9-14.1s-6.1-2.8-8-2.9
	C413.6,471.5,415.2,478.3,414.4,479.8z"/>
<path class="st6" d="M404.2,488.2l1.5,4.6c0,0,0,4.6,1.5,6.8c1.5,2.3,3,7.2-3,7.6c-6.1,0.4-8.7-1.9-8.7-1.9s1.1-3,0-4.2
	c-1.1-1.1,0-3.4,0-3.4l1.1-9.1L404.2,488.2z"/>
<path class="st6" d="M393.9,450.1h3.4l17.1,22.4c0,0-3,7.2-7.6,8c0,0-0.8-0.4-4.2-2.7c-3.4-2.3-12.6-13.7-12.6-13.7l-1.1-6.5
	L393.9,450.1z"/>
<circle class="st4" cx="385.5" cy="313.6" r="12.2"/>
<path class="st3" d="M400.4,329.2l-3.8-1.5c0,0-0.4,13.3-7.6,13.3c-7.2,0-14.8-1.9-14.8-5.7s-6.1,6.8-6.1,6.8s5.7,38,5.3,38.4
	s4.2,20.5,4.2,20.5s19.4,0.8,25.9-1.9c6.5-2.7,8.4-7.6,8.4-7.6l-2.7-33.5l-5.3-25.9L400.4,329.2z"/>
<path class="st7" d="M393.9,325.8c0,0,1.5-1.5,3.8,0c2.3,1.5,16.4,4.9,16.4,6.1v14.5c0,0,0.4,2.3-0.8,3.8c-1.1,1.5-3.8,7.2-2.3,9.9
	c1.5,2.7,7.2,33.5,6.1,37.3c-1.1,3.8-4.2,7.2-4.2,7.2s-16.4-34.6-16.4-44.5s0.2-22,0.2-22L393.9,325.8z"/>
<path class="st7" d="M410.6,332.2h3.4c0,0,12.9,24.7,12.9,29.7s-8.4,32.3-9.1,32.7c-0.8,0.4-3-4.2-3-4.2l-1.9-15.2
	c0,0,3.8-9.1,2.7-10.6c-1.1-1.5-6.8-13.3-6.8-13.3L410.6,332.2z"/>
<path class="st7" d="M377,325.8c0,0-4.4,3-5.1,4.2s-12.2,7.6-12.6,9.1c-0.4,1.5,8.7,14.5,8.7,14.5s3.8,21.3,3.8,22.8
	c0,1.5,1.5,27.4,1.5,27.4s15.6,4.6,15.6,1.9c0-2.7,0.4-40.7-1.9-49.1C384.8,348.2,377,325.8,377,325.8z"/>
<path class="st4" d="M379.4,404.5c0,0,12.9,17.5,6.1,17.1c-6.8-0.4-11.4-15.2-11.4-15.2L379.4,404.5z"/>
<path class="st7" d="M363.8,337.9l-4.6,1.1c0,0-3.8,33.5-1.5,38c2.3,4.6,14.5,34.2,14.5,33.1s10.7-3.2,10.3-4.2
	c-0.4-1.1-2.7-5.6-3.5-7.2c-0.8-1.5-1.9-3.4-1.5-5.3c0.4-1.9-4.2-10-4.2-10s-1.1-4.8-1.5-7.1c-0.4-2.3-3.8-27.4-3.8-27.4
	L363.8,337.9z"/>
<path class="st6" d="M397.5,304.2c-0.2-0.7-0.7-1.3-1.4-1.7c0-0.8-0.1-1.5-0.3-2.2c-0.8-2.1-2.6-2-4.2-2.9c-0.7-0.4-0.7-0.8-1.1-1.4
	c-0.5-0.9-1.3-1.6-2.2-2.1c-1-0.7-2.3-1.2-3.5-1.4c-2.7-0.2-4.8,2.2-7.4,3c-1.1,0.3-2.4,0.4-3.5,0.7c-1.1,0.3-2.3,1.1-2.5,2.2
	c-0.1,0.5,0.1,1,0,1.6c-0.2,1-1.1,1.7-1.7,2.6c-1.4,1.9-1.2,4.5-0.1,6.5c0.2,0.4,0.5,0.8,0.8,1.2c0.1,1,0.4,1.9,0.9,2.7
	c1.1,2,3.1,3.5,5.1,4.8c-0.2-0.7-0.3-1.4-0.3-2c0-0.2,0-0.5,0.1-0.7c0.2-0.4,0.8-0.6,1.3-0.8c0.9-0.6,1.4-1.6,1.3-2.6
	c0-1-0.2-2-0.1-3c0-0.5,0.2-0.9,0.6-1.2c0.4-0.2,0.7-0.3,1.1-0.3c1.9-0.1,3.9-0.1,5.6-1c0.6-0.3,1.1-0.6,1.8-0.8
	c1.4-0.4,2.9,0.6,3.8,1.8c0.8,1.2,1.2,2.6,2,3.8s2.1,2.3,3.6,2.1c0.2,0,0.3-0.1,0.4-0.2c0.1-0.1,0.1-0.2,0.1-0.4l0.1-5.3
	C397.8,306,397.7,305,397.5,304.2z"/>
<ellipse class="st0" cx="622.1" cy="541.1" rx="81.3" ry="5.8"/>
<path class="st7" d="M573.1,506.8c0,0-6.4,5.4-9.8,5c-3.4-0.3-9.8-0.3-7.1,3.4c2.7,3.7,13.8,5.7,18.5,6.1c4.7,0.3,15.1,0.7,14.5-1.3
	c-0.7-2-1.3-11.4-4-12.1C582.5,507.2,573.1,506.8,573.1,506.8z"/>
<path class="st7" d="M609.7,501.6c0,0-4.7,6.9-8,7.5s-9.5,2.3-5.9,5.1c3.6,2.8,14.8,1.8,19.4,0.9s14.8-3.4,13.6-5.2
	c-1.2-1.8-4.4-10.6-7.1-10.6S609.7,501.6,609.7,501.6z"/>
<path class="st6" d="M569.3,402.9c0,0-4.3,29.6-3.3,35c1,5.4,1.7,13.8,1.7,13.8s-0.7,7.1,0,10.4c0.7,3.4,4.7,35.3,4.7,36
	s-0.7,2.7,0,4.4c0.7,1.7,2,0.3,0,3c-2,2.7-0.7,3.4-0.3,3.4s13.4,1.3,14.1,0c0.7-1.3-0.3-1.7,0-3.4c0.3-1.7,0.7-2,1.3-2.4
	c0.7-0.3,2,0.3,1-1.3c-1-1.7-3.4-3.7-2.7-4.7c0.7-1-0.3-8.4-0.3-8.4s-0.7-16.5-1-26.6c-0.3-10.1,3-20.5,3-20.5
	c0.4,8.3,3.5,16.2,8.7,22.5c8.7,10.4,13.1,29.9,13.1,29.9s2,3,1,5.7c-1,2.7-4,1-1,2.7s13.4-0.7,14.5-1.7s-1.3-2.4-0.7-5
	c0.7-2.7,3.4-2,1-3.4c-2.4-1.3-3-1-3-2.4c0-1.3-6.1-30.6-15.5-39l-0.7-30.6c0,0,8.4-21.5-0.3-23.5
	C595.9,394.9,569.3,402.9,569.3,402.9z"/>
<path class="st8" d="M575.4,323.3c0,0,5.7,14.1,4.4,16.1c-1.3,2,16.5-6.7,16.5-6.7s-5.7-14.1-5.7-15.8S575.4,323.3,575.4,323.3z"/>
<circle class="st8" cx="579.6" cy="314.3" r="12.4"/>
<path class="st3" d="M596.3,327c0,0-8.7-1-13.1,4.4c-4.4,5.4-5,6.7-5,6.7s-10.4,16.8-8.4,25.2c0.5,0.8,0.9,1.5,1.3,2.4
	c0.7,1.3,0.7,20.2,0,23.2c-0.7,3-1.3,4-0.7,8.4c0.7,4.4-5.4,11.4,1.7,12.8s12.4,0.3,14.8-2.7c2.4-3,0.3-5,7.7-5
	c4.5-0.1,8.9-1.9,12.1-5c0,0-3.7-4-2.4-4.7s0-2.4-0.7-4c-0.7-1.7-0.7-3,0.3-3s0.3-0.7-0.3-2.4c-0.7-1.7,11.8-30.6,4.4-39
	S596.9,331,596.9,331S598.3,325.9,596.3,327z"/>
<path class="st8" d="M577.1,358.9v14.8l-10.8,35.6c0,0-7.1,18.5,0,18.5s6.7-17.7,6.7-17.7l15.2-26.7c0,0,6.1-21.2,5.4-22.9
	C592.9,358.9,577.1,358.9,577.1,358.9z"/>
<path class="st3" d="M582.8,337c0,0-10.1,4-7.4,14.8c2.7,10.8,0,10.4,0,10.4s13.8-1.3,18.2,1.7l1-4
	C594.6,359.9,598.6,336.7,582.8,337z"/>
<path class="st6" d="M575.4,305c-1.6,0.6-3.3,0.3-4.7-0.7c-1.3-1.1-1.7-2.9-1.1-4.4c0.6-1.3,2-2,3.3-2.5c2.9-1.1,6-1.8,9.1-2.1
	c1.5-0.1,3-0.1,4.4,0.6c0.7,0.3,1.2,0.8,1.9,1.2c1.2,0.6,2.6,0.8,3.9,1.2c2.7,0.9,4.8,2.9,5.9,5.5c0.4,0.9,0.6,1.8,0.7,2.7
	c0.4,2.5,0.1,5.1-0.8,7.6c-1.4,3.8-4.4,7.2-4.6,11.2c-1.8-1.3-2.5-3.7-4-5.5c-1.1-1.3-2.6-2.1-4.2-2.5c-0.5,0-0.9-0.2-1.3-0.5
	c-0.3-0.3-0.4-0.7-0.5-1.1l-1.3-5.9c-0.3-1.2-0.6-2.5-1.6-3.3c-0.6-0.4-1.3-0.6-2.1-0.7c-1.7-0.3-3.5-0.5-5.3-0.5"/>
</svg>
