<?xml version="1.0" encoding="utf-8"?>
<!-- Generator: Adobe Illustrator 23.0.3, SVG Export Plug-In . SVG Version: 6.00 Build 0)  -->
<svg version="1.1" id="Layer_1" xmlns="http://www.w3.org/2000/svg" xmlns:xlink="http://www.w3.org/1999/xlink" x="0px" y="0px"
	 viewBox="0 0 2066 220" style="enable-background:new 0 0 2066 220;" xml:space="preserve">
<style type="text/css">
	.st0{fill:#2962ff;}
</style>
<g>
	<path class="st0" d="M2066,40v181.1H0V33.4C30.4,16.6,66.1,7,104.2,7c39.9,0,77,10.5,108.3,28.7c27.8,16.1,63.5,16.1,91.2,0
		C334.9,17.5,372.1,7,411.9,7c39.9,0,77,10.5,108.3,28.7c27.7,16.1,63.5,16.1,91.2,0C642.7,17.5,679.8,7,719.7,7
		c39.9,0,77,10.5,108.3,28.7c27.7,16.1,63.5,16.1,91.2,0C950.4,17.5,987.6,7,1027.4,7c39.8,0,77,10.5,108.3,28.7
		c27.7,16.1,63.5,16.1,91.2,0C1258.2,17.5,1295.3,7,1335.2,7c39.8,0,77,10.5,108.3,28.7c27.7,16.1,63.5,16.1,91.2,0
		C1565.9,17.5,1603,7,1642.9,7c39.8,0,77,10.5,108.3,28.7c27.7,16.1,63.5,16.1,91.2,0C1873.6,17.5,1910.8,7,1950.6,7
		c42.2,0,81.3,11.8,113.6,31.9C2064.8,39.3,2065.4,39.7,2066,40z"/>
</g>
</svg>
