<?xml version="1.0" encoding="utf-8"?>
<!-- Generator: Adobe Illustrator 23.0.3, SVG Export Plug-In . SVG Version: 6.00 Build 0)  -->
<svg version="1.1" id="Layer_1" xmlns="http://www.w3.org/2000/svg" xmlns:xlink="http://www.w3.org/1999/xlink" x="0px" y="0px"
	 viewBox="0 0 2533 122" style="enable-background:new 0 0 2533 122;" xml:space="preserve">
<style type="text/css">
	.st0{fill:#D19595;}
</style>
<path class="st0" d="M688.5,124.5L688.5,124.5z"/>
<path class="st0" d="M921.4,125L921.4,125z"/>
<path class="st0" d="M1154.3,125.5L1154.3,125.5z"/>
<path class="st0" d="M1620.2,126.5L1620.2,126.5z"/>
<path class="st0" d="M1853.2,127L1853.2,127z"/>
<path class="st0" d="M2086.1,127.5L2086.1,127.5z"/>
<path class="st0" d="M2319.1,128L2319.1,128z"/>
<path class="st0" d="M455.5,124L455.5,124z"/>
<path class="st0" d="M2576.9,122H-18.9l44.1-76.5c6.6-11.4,22.9-11.4,29.5,0l0,0c6.6,11.4,22.9,11.4,29.5,0l0,0
	c6.6-11.4,22.9-11.4,29.5,0l0,0c6.6,11.4,22.9,11.4,29.5,0l0,0c6.6-11.4,22.9-11.4,29.5,0l0,0c6.6,11.4,22.9,11.4,29.5,0l0,0
	c6.6-11.4,22.9-11.4,29.5,0l0,0c6.6,11.4,22.9,11.4,29.5,0v0c6.6-11.4,22.9-11.4,29.5,0v0c6.6,11.4,22.9,11.4,29.5,0v0
	c6.6-11.4,22.9-11.4,29.5,0v0c6.6,11.4,22.9,11.4,29.5,0v0c6.6-11.4,22.9-11.4,29.5,0v0c6.6,11.4,22.9,11.4,29.5,0v0
	c6.6-11.4,22.9-11.4,29.5,0v0c6.6,11.4,22.9,11.4,29.5,0v0c6.6-11.4,22.9-11.4,29.5,0v0c6.6,11.4,22.9,11.4,29.5,0v0
	c6.6-11.4,22.9-11.4,29.5,0v0c6.6,11.4,22.9,11.4,29.5,0v0c6.6-11.4,22.9-11.4,29.5,0v0c6.6,11.4,22.9,11.4,29.5,0v0
	c6.6-11.4,22.9-11.4,29.5,0v0c6.6,11.4,22.9,11.4,29.5,0v0c6.6-11.4,22.9-11.4,29.5,0v0c6.6,11.4,22.9,11.4,29.5,0v0
	c6.6-11.4,22.9-11.4,29.5,0v0c6.6,11.4,22.9,11.4,29.5,0v0c6.6-11.4,22.9-11.4,29.5,0v0c6.6,11.4,22.9,11.4,29.5,0v0
	c6.6-11.4,22.9-11.4,29.5,0v0c6.6,11.4,22.9,11.4,29.5,0v0c6.6-11.4,22.9-11.4,29.5,0v0c6.6,11.4,22.9,11.4,29.5,0v0
	c6.6-11.4,22.9-11.4,29.5,0v0c6.6,11.4,22.9,11.4,29.5,0v0c6.6-11.4,22.9-11.4,29.5,0v0c6.6,11.4,22.9,11.4,29.5,0v0
	c6.6-11.4,22.9-11.4,29.5,0v0c6.6,11.4,22.9,11.4,29.5,0v0c6.6-11.4,22.9-11.4,29.5,0v0c6.6,11.4,22.9,11.4,29.5,0v0
	c6.6-11.4,22.9-11.4,29.5,0v0c6.6,11.4,22.9,11.4,29.5,0v0c6.6-11.4,22.9-11.4,29.5,0v0c6.6,11.4,22.9,11.4,29.5,0v0
	c6.6-11.4,22.9-11.4,29.5,0v0c6.6,11.4,22.9,11.4,29.5,0v0c6.6-11.4,22.9-11.4,29.5,0v0c6.6,11.4,22.9,11.4,29.5,0v0
	c6.6-11.4,22.9-11.4,29.5,0v0c6.6,11.4,22.9,11.4,29.5,0v0c6.6-11.4,22.9-11.4,29.5,0v0c6.6,11.4,22.9,11.4,29.5,0v0
	c6.6-11.4,22.9-11.4,29.5,0v0c6.6,11.4,22.9,11.4,29.5,0v0c6.6-11.4,22.9-11.4,29.5,0v0c6.6,11.4,22.9,11.4,29.5,0v0
	c6.6-11.4,22.9-11.4,29.5,0v0c6.6,11.4,22.9,11.4,29.5,0v0c6.6-11.4,22.9-11.4,29.5,0v0c6.6,11.4,22.9,11.4,29.5,0v0
	c6.6-11.4,22.9-11.4,29.5,0v0c6.6,11.4,22.9,11.4,29.5,0v0c6.6-11.4,22.9-11.4,29.5,0v0c6.6,11.4,22.9,11.4,29.5,0v0
	c6.6-11.4,22.9-11.4,29.5,0v0c6.6,11.4,22.9,11.4,29.5,0v0c6.6-11.4,22.9-11.4,29.5,0v0c6.6,11.4,22.9,11.4,29.5,0v0
	c6.6-11.4,22.9-11.4,29.5,0v0c6.6,11.4,22.9,11.4,29.5,0v0c6.6-11.4,22.9-11.4,29.5,0v0c6.6,11.4,22.9,11.4,29.5,0v0
	c6.6-11.4,22.9-11.4,29.5,0v0c6.6,11.4,22.9,11.4,29.5,0v0c6.6-11.4,22.9-11.4,29.5,0v0c6.6,11.4,22.9,11.4,29.5,0v0
	c6.6-11.4,22.9-11.4,29.5,0v0c6.6,11.4,22.9,11.4,29.5,0v0c6.6-11.4,22.9-11.4,29.5,0v0c6.6,11.4,22.9,11.4,29.5,0v0
	c6.6-11.4,22.9-11.4,29.5,0v0c6.6,11.4,22.9,11.4,29.5,0l0,0c6.6-11.4,22.9-11.4,29.5,0L2576.9,122z"/>
</svg>
